<mxfile host="app.diagrams.net" agent="Mozilla/5.0 (Windows NT 10.0; Win64; x64) AppleWebKit/537.36 (KHTML, like Gecko) Chrome/137.0.0.0 Safari/537.36 Edg/137.0.0.0" version="27.1.6" pages="2">
  <diagram name="Page-1" id="WefTRPJRLaYt9yLIdalU">
    <mxGraphModel dx="1017" dy="426" grid="1" gridSize="10" guides="1" tooltips="1" connect="1" arrows="1" fold="1" page="1" pageScale="1" pageWidth="850" pageHeight="1100" math="0" shadow="0">
      <root>
        <mxCell id="0" />
        <mxCell id="1" parent="0" />
        <mxCell id="lxnCnVTD18VQQBiebtyx-1" value="USERS" style="shape=table;startSize=25;container=1;collapsible=0;childLayout=tableLayout;fixedRows=1;rowLines=1;fontStyle=1;align=center;resizeLast=1;" vertex="1" parent="1">
          <mxGeometry x="67" y="507" width="276" height="475" as="geometry" />
        </mxCell>
        <mxCell id="lxnCnVTD18VQQBiebtyx-2" style="shape=tableRow;horizontal=0;startSize=0;swimlaneHead=0;swimlaneBody=0;fillColor=none;collapsible=0;dropTarget=0;points=[[0,0.5],[1,0.5]];portConstraint=eastwest;top=0;left=0;right=0;bottom=0;" vertex="1" parent="lxnCnVTD18VQQBiebtyx-1">
          <mxGeometry y="25" width="268" height="45" as="geometry" />
        </mxCell>
        <mxCell id="lxnCnVTD18VQQBiebtyx-3" value="string" style="shape=partialRectangle;connectable=0;fillColor=none;top=0;left=0;bottom=0;right=0;align=left;spacingLeft=2;overflow=hidden;fontSize=11;" vertex="1" parent="lxnCnVTD18VQQBiebtyx-2">
          <mxGeometry width="48" height="45" as="geometry">
            <mxRectangle width="48" height="45" as="alternateBounds" />
          </mxGeometry>
        </mxCell>
        <mxCell id="lxnCnVTD18VQQBiebtyx-4" value="user_key" style="shape=partialRectangle;connectable=0;fillColor=none;top=0;left=0;bottom=0;right=0;align=left;spacingLeft=2;overflow=hidden;fontSize=11;" vertex="1" parent="lxnCnVTD18VQQBiebtyx-2">
          <mxGeometry x="48" width="208" height="45" as="geometry">
            <mxRectangle width="208" height="45" as="alternateBounds" />
          </mxGeometry>
        </mxCell>
        <mxCell id="lxnCnVTD18VQQBiebtyx-5" value="PK" style="shape=partialRectangle;connectable=0;fillColor=none;top=0;left=0;bottom=0;right=0;align=left;spacingLeft=2;overflow=hidden;fontSize=11;" vertex="1" parent="lxnCnVTD18VQQBiebtyx-2">
          <mxGeometry x="256" width="12" height="45" as="geometry">
            <mxRectangle width="12" height="45" as="alternateBounds" />
          </mxGeometry>
        </mxCell>
        <mxCell id="lxnCnVTD18VQQBiebtyx-6" style="shape=tableRow;horizontal=0;startSize=0;swimlaneHead=0;swimlaneBody=0;fillColor=none;collapsible=0;dropTarget=0;points=[[0,0.5],[1,0.5]];portConstraint=eastwest;top=0;left=0;right=0;bottom=0;" vertex="1" parent="lxnCnVTD18VQQBiebtyx-1">
          <mxGeometry y="70" width="268" height="45" as="geometry" />
        </mxCell>
        <mxCell id="lxnCnVTD18VQQBiebtyx-7" value="string" style="shape=partialRectangle;connectable=0;fillColor=none;top=0;left=0;bottom=0;right=0;align=left;spacingLeft=2;overflow=hidden;fontSize=11;" vertex="1" parent="lxnCnVTD18VQQBiebtyx-6">
          <mxGeometry width="48" height="45" as="geometry">
            <mxRectangle width="48" height="45" as="alternateBounds" />
          </mxGeometry>
        </mxCell>
        <mxCell id="lxnCnVTD18VQQBiebtyx-8" value="master_user_id" style="shape=partialRectangle;connectable=0;fillColor=none;top=0;left=0;bottom=0;right=0;align=left;spacingLeft=2;overflow=hidden;fontSize=11;" vertex="1" parent="lxnCnVTD18VQQBiebtyx-6">
          <mxGeometry x="48" width="208" height="45" as="geometry">
            <mxRectangle width="208" height="45" as="alternateBounds" />
          </mxGeometry>
        </mxCell>
        <mxCell id="lxnCnVTD18VQQBiebtyx-9" value="" style="shape=partialRectangle;connectable=0;fillColor=none;top=0;left=0;bottom=0;right=0;align=left;spacingLeft=2;overflow=hidden;fontSize=11;" vertex="1" parent="lxnCnVTD18VQQBiebtyx-6">
          <mxGeometry x="256" width="12" height="45" as="geometry">
            <mxRectangle width="12" height="45" as="alternateBounds" />
          </mxGeometry>
        </mxCell>
        <mxCell id="lxnCnVTD18VQQBiebtyx-10" style="shape=tableRow;horizontal=0;startSize=0;swimlaneHead=0;swimlaneBody=0;fillColor=none;collapsible=0;dropTarget=0;points=[[0,0.5],[1,0.5]];portConstraint=eastwest;top=0;left=0;right=0;bottom=0;" vertex="1" parent="lxnCnVTD18VQQBiebtyx-1">
          <mxGeometry y="115" width="268" height="45" as="geometry" />
        </mxCell>
        <mxCell id="lxnCnVTD18VQQBiebtyx-11" value="string" style="shape=partialRectangle;connectable=0;fillColor=none;top=0;left=0;bottom=0;right=0;align=left;spacingLeft=2;overflow=hidden;fontSize=11;" vertex="1" parent="lxnCnVTD18VQQBiebtyx-10">
          <mxGeometry width="48" height="45" as="geometry">
            <mxRectangle width="48" height="45" as="alternateBounds" />
          </mxGeometry>
        </mxCell>
        <mxCell id="lxnCnVTD18VQQBiebtyx-12" value="email" style="shape=partialRectangle;connectable=0;fillColor=none;top=0;left=0;bottom=0;right=0;align=left;spacingLeft=2;overflow=hidden;fontSize=11;" vertex="1" parent="lxnCnVTD18VQQBiebtyx-10">
          <mxGeometry x="48" width="208" height="45" as="geometry">
            <mxRectangle width="208" height="45" as="alternateBounds" />
          </mxGeometry>
        </mxCell>
        <mxCell id="lxnCnVTD18VQQBiebtyx-13" value="" style="shape=partialRectangle;connectable=0;fillColor=none;top=0;left=0;bottom=0;right=0;align=left;spacingLeft=2;overflow=hidden;fontSize=11;" vertex="1" parent="lxnCnVTD18VQQBiebtyx-10">
          <mxGeometry x="256" width="12" height="45" as="geometry">
            <mxRectangle width="12" height="45" as="alternateBounds" />
          </mxGeometry>
        </mxCell>
        <mxCell id="lxnCnVTD18VQQBiebtyx-14" style="shape=tableRow;horizontal=0;startSize=0;swimlaneHead=0;swimlaneBody=0;fillColor=none;collapsible=0;dropTarget=0;points=[[0,0.5],[1,0.5]];portConstraint=eastwest;top=0;left=0;right=0;bottom=0;" vertex="1" parent="lxnCnVTD18VQQBiebtyx-1">
          <mxGeometry y="160" width="268" height="45" as="geometry" />
        </mxCell>
        <mxCell id="lxnCnVTD18VQQBiebtyx-15" value="string" style="shape=partialRectangle;connectable=0;fillColor=none;top=0;left=0;bottom=0;right=0;align=left;spacingLeft=2;overflow=hidden;fontSize=11;" vertex="1" parent="lxnCnVTD18VQQBiebtyx-14">
          <mxGeometry width="48" height="45" as="geometry">
            <mxRectangle width="48" height="45" as="alternateBounds" />
          </mxGeometry>
        </mxCell>
        <mxCell id="lxnCnVTD18VQQBiebtyx-16" value="phone_number" style="shape=partialRectangle;connectable=0;fillColor=none;top=0;left=0;bottom=0;right=0;align=left;spacingLeft=2;overflow=hidden;fontSize=11;" vertex="1" parent="lxnCnVTD18VQQBiebtyx-14">
          <mxGeometry x="48" width="208" height="45" as="geometry">
            <mxRectangle width="208" height="45" as="alternateBounds" />
          </mxGeometry>
        </mxCell>
        <mxCell id="lxnCnVTD18VQQBiebtyx-17" value="" style="shape=partialRectangle;connectable=0;fillColor=none;top=0;left=0;bottom=0;right=0;align=left;spacingLeft=2;overflow=hidden;fontSize=11;" vertex="1" parent="lxnCnVTD18VQQBiebtyx-14">
          <mxGeometry x="256" width="12" height="45" as="geometry">
            <mxRectangle width="12" height="45" as="alternateBounds" />
          </mxGeometry>
        </mxCell>
        <mxCell id="lxnCnVTD18VQQBiebtyx-18" style="shape=tableRow;horizontal=0;startSize=0;swimlaneHead=0;swimlaneBody=0;fillColor=none;collapsible=0;dropTarget=0;points=[[0,0.5],[1,0.5]];portConstraint=eastwest;top=0;left=0;right=0;bottom=0;" vertex="1" parent="lxnCnVTD18VQQBiebtyx-1">
          <mxGeometry y="205" width="268" height="45" as="geometry" />
        </mxCell>
        <mxCell id="lxnCnVTD18VQQBiebtyx-19" value="string" style="shape=partialRectangle;connectable=0;fillColor=none;top=0;left=0;bottom=0;right=0;align=left;spacingLeft=2;overflow=hidden;fontSize=11;" vertex="1" parent="lxnCnVTD18VQQBiebtyx-18">
          <mxGeometry width="48" height="45" as="geometry">
            <mxRectangle width="48" height="45" as="alternateBounds" />
          </mxGeometry>
        </mxCell>
        <mxCell id="lxnCnVTD18VQQBiebtyx-20" value="name" style="shape=partialRectangle;connectable=0;fillColor=none;top=0;left=0;bottom=0;right=0;align=left;spacingLeft=2;overflow=hidden;fontSize=11;" vertex="1" parent="lxnCnVTD18VQQBiebtyx-18">
          <mxGeometry x="48" width="208" height="45" as="geometry">
            <mxRectangle width="208" height="45" as="alternateBounds" />
          </mxGeometry>
        </mxCell>
        <mxCell id="lxnCnVTD18VQQBiebtyx-21" value="" style="shape=partialRectangle;connectable=0;fillColor=none;top=0;left=0;bottom=0;right=0;align=left;spacingLeft=2;overflow=hidden;fontSize=11;" vertex="1" parent="lxnCnVTD18VQQBiebtyx-18">
          <mxGeometry x="256" width="12" height="45" as="geometry">
            <mxRectangle width="12" height="45" as="alternateBounds" />
          </mxGeometry>
        </mxCell>
        <mxCell id="lxnCnVTD18VQQBiebtyx-22" style="shape=tableRow;horizontal=0;startSize=0;swimlaneHead=0;swimlaneBody=0;fillColor=none;collapsible=0;dropTarget=0;points=[[0,0.5],[1,0.5]];portConstraint=eastwest;top=0;left=0;right=0;bottom=0;" vertex="1" parent="lxnCnVTD18VQQBiebtyx-1">
          <mxGeometry y="250" width="268" height="45" as="geometry" />
        </mxCell>
        <mxCell id="lxnCnVTD18VQQBiebtyx-23" value="string" style="shape=partialRectangle;connectable=0;fillColor=none;top=0;left=0;bottom=0;right=0;align=left;spacingLeft=2;overflow=hidden;fontSize=11;" vertex="1" parent="lxnCnVTD18VQQBiebtyx-22">
          <mxGeometry width="48" height="45" as="geometry">
            <mxRectangle width="48" height="45" as="alternateBounds" />
          </mxGeometry>
        </mxCell>
        <mxCell id="lxnCnVTD18VQQBiebtyx-24" value="loyalty_id" style="shape=partialRectangle;connectable=0;fillColor=none;top=0;left=0;bottom=0;right=0;align=left;spacingLeft=2;overflow=hidden;fontSize=11;" vertex="1" parent="lxnCnVTD18VQQBiebtyx-22">
          <mxGeometry x="48" width="208" height="45" as="geometry">
            <mxRectangle width="208" height="45" as="alternateBounds" />
          </mxGeometry>
        </mxCell>
        <mxCell id="lxnCnVTD18VQQBiebtyx-25" value="" style="shape=partialRectangle;connectable=0;fillColor=none;top=0;left=0;bottom=0;right=0;align=left;spacingLeft=2;overflow=hidden;fontSize=11;" vertex="1" parent="lxnCnVTD18VQQBiebtyx-22">
          <mxGeometry x="256" width="12" height="45" as="geometry">
            <mxRectangle width="12" height="45" as="alternateBounds" />
          </mxGeometry>
        </mxCell>
        <mxCell id="lxnCnVTD18VQQBiebtyx-26" style="shape=tableRow;horizontal=0;startSize=0;swimlaneHead=0;swimlaneBody=0;fillColor=none;collapsible=0;dropTarget=0;points=[[0,0.5],[1,0.5]];portConstraint=eastwest;top=0;left=0;right=0;bottom=0;" vertex="1" parent="lxnCnVTD18VQQBiebtyx-1">
          <mxGeometry y="295" width="268" height="45" as="geometry" />
        </mxCell>
        <mxCell id="lxnCnVTD18VQQBiebtyx-27" value="boolean" style="shape=partialRectangle;connectable=0;fillColor=none;top=0;left=0;bottom=0;right=0;align=left;spacingLeft=2;overflow=hidden;fontSize=11;" vertex="1" parent="lxnCnVTD18VQQBiebtyx-26">
          <mxGeometry width="48" height="45" as="geometry">
            <mxRectangle width="48" height="45" as="alternateBounds" />
          </mxGeometry>
        </mxCell>
        <mxCell id="lxnCnVTD18VQQBiebtyx-28" value="is_current" style="shape=partialRectangle;connectable=0;fillColor=none;top=0;left=0;bottom=0;right=0;align=left;spacingLeft=2;overflow=hidden;fontSize=11;" vertex="1" parent="lxnCnVTD18VQQBiebtyx-26">
          <mxGeometry x="48" width="208" height="45" as="geometry">
            <mxRectangle width="208" height="45" as="alternateBounds" />
          </mxGeometry>
        </mxCell>
        <mxCell id="lxnCnVTD18VQQBiebtyx-29" value="" style="shape=partialRectangle;connectable=0;fillColor=none;top=0;left=0;bottom=0;right=0;align=left;spacingLeft=2;overflow=hidden;fontSize=11;" vertex="1" parent="lxnCnVTD18VQQBiebtyx-26">
          <mxGeometry x="256" width="12" height="45" as="geometry">
            <mxRectangle width="12" height="45" as="alternateBounds" />
          </mxGeometry>
        </mxCell>
        <mxCell id="lxnCnVTD18VQQBiebtyx-30" style="shape=tableRow;horizontal=0;startSize=0;swimlaneHead=0;swimlaneBody=0;fillColor=none;collapsible=0;dropTarget=0;points=[[0,0.5],[1,0.5]];portConstraint=eastwest;top=0;left=0;right=0;bottom=0;" vertex="1" parent="lxnCnVTD18VQQBiebtyx-1">
          <mxGeometry y="340" width="268" height="45" as="geometry" />
        </mxCell>
        <mxCell id="lxnCnVTD18VQQBiebtyx-31" value="datetime" style="shape=partialRectangle;connectable=0;fillColor=none;top=0;left=0;bottom=0;right=0;align=left;spacingLeft=2;overflow=hidden;fontSize=11;" vertex="1" parent="lxnCnVTD18VQQBiebtyx-30">
          <mxGeometry width="48" height="45" as="geometry">
            <mxRectangle width="48" height="45" as="alternateBounds" />
          </mxGeometry>
        </mxCell>
        <mxCell id="lxnCnVTD18VQQBiebtyx-32" value="valid_from" style="shape=partialRectangle;connectable=0;fillColor=none;top=0;left=0;bottom=0;right=0;align=left;spacingLeft=2;overflow=hidden;fontSize=11;" vertex="1" parent="lxnCnVTD18VQQBiebtyx-30">
          <mxGeometry x="48" width="208" height="45" as="geometry">
            <mxRectangle width="208" height="45" as="alternateBounds" />
          </mxGeometry>
        </mxCell>
        <mxCell id="lxnCnVTD18VQQBiebtyx-33" value="" style="shape=partialRectangle;connectable=0;fillColor=none;top=0;left=0;bottom=0;right=0;align=left;spacingLeft=2;overflow=hidden;fontSize=11;" vertex="1" parent="lxnCnVTD18VQQBiebtyx-30">
          <mxGeometry x="256" width="12" height="45" as="geometry">
            <mxRectangle width="12" height="45" as="alternateBounds" />
          </mxGeometry>
        </mxCell>
        <mxCell id="lxnCnVTD18VQQBiebtyx-34" style="shape=tableRow;horizontal=0;startSize=0;swimlaneHead=0;swimlaneBody=0;fillColor=none;collapsible=0;dropTarget=0;points=[[0,0.5],[1,0.5]];portConstraint=eastwest;top=0;left=0;right=0;bottom=0;" vertex="1" parent="lxnCnVTD18VQQBiebtyx-1">
          <mxGeometry y="385" width="268" height="45" as="geometry" />
        </mxCell>
        <mxCell id="lxnCnVTD18VQQBiebtyx-35" value="datetime" style="shape=partialRectangle;connectable=0;fillColor=none;top=0;left=0;bottom=0;right=0;align=left;spacingLeft=2;overflow=hidden;fontSize=11;" vertex="1" parent="lxnCnVTD18VQQBiebtyx-34">
          <mxGeometry width="48" height="45" as="geometry">
            <mxRectangle width="48" height="45" as="alternateBounds" />
          </mxGeometry>
        </mxCell>
        <mxCell id="lxnCnVTD18VQQBiebtyx-36" value="valid_to" style="shape=partialRectangle;connectable=0;fillColor=none;top=0;left=0;bottom=0;right=0;align=left;spacingLeft=2;overflow=hidden;fontSize=11;" vertex="1" parent="lxnCnVTD18VQQBiebtyx-34">
          <mxGeometry x="48" width="208" height="45" as="geometry">
            <mxRectangle width="208" height="45" as="alternateBounds" />
          </mxGeometry>
        </mxCell>
        <mxCell id="lxnCnVTD18VQQBiebtyx-37" value="" style="shape=partialRectangle;connectable=0;fillColor=none;top=0;left=0;bottom=0;right=0;align=left;spacingLeft=2;overflow=hidden;fontSize=11;" vertex="1" parent="lxnCnVTD18VQQBiebtyx-34">
          <mxGeometry x="256" width="12" height="45" as="geometry">
            <mxRectangle width="12" height="45" as="alternateBounds" />
          </mxGeometry>
        </mxCell>
        <mxCell id="lxnCnVTD18VQQBiebtyx-38" style="shape=tableRow;horizontal=0;startSize=0;swimlaneHead=0;swimlaneBody=0;fillColor=none;collapsible=0;dropTarget=0;points=[[0,0.5],[1,0.5]];portConstraint=eastwest;top=0;left=0;right=0;bottom=0;" vertex="1" parent="lxnCnVTD18VQQBiebtyx-1">
          <mxGeometry y="430" width="268" height="45" as="geometry" />
        </mxCell>
        <mxCell id="lxnCnVTD18VQQBiebtyx-39" value="string" style="shape=partialRectangle;connectable=0;fillColor=none;top=0;left=0;bottom=0;right=0;align=left;spacingLeft=2;overflow=hidden;fontSize=11;" vertex="1" parent="lxnCnVTD18VQQBiebtyx-38">
          <mxGeometry width="48" height="45" as="geometry">
            <mxRectangle width="48" height="45" as="alternateBounds" />
          </mxGeometry>
        </mxCell>
        <mxCell id="lxnCnVTD18VQQBiebtyx-40" value="source" style="shape=partialRectangle;connectable=0;fillColor=none;top=0;left=0;bottom=0;right=0;align=left;spacingLeft=2;overflow=hidden;fontSize=11;" vertex="1" parent="lxnCnVTD18VQQBiebtyx-38">
          <mxGeometry x="48" width="208" height="45" as="geometry">
            <mxRectangle width="208" height="45" as="alternateBounds" />
          </mxGeometry>
        </mxCell>
        <mxCell id="lxnCnVTD18VQQBiebtyx-41" value="" style="shape=partialRectangle;connectable=0;fillColor=none;top=0;left=0;bottom=0;right=0;align=left;spacingLeft=2;overflow=hidden;fontSize=11;" vertex="1" parent="lxnCnVTD18VQQBiebtyx-38">
          <mxGeometry x="256" width="12" height="45" as="geometry">
            <mxRectangle width="12" height="45" as="alternateBounds" />
          </mxGeometry>
        </mxCell>
        <mxCell id="lxnCnVTD18VQQBiebtyx-42" value="ORDERS" style="shape=table;startSize=25;container=1;collapsible=0;childLayout=tableLayout;fixedRows=1;rowLines=1;fontStyle=1;align=center;resizeLast=1;" vertex="1" parent="1">
          <mxGeometry x="483" y="20" width="290" height="385" as="geometry" />
        </mxCell>
        <mxCell id="lxnCnVTD18VQQBiebtyx-43" style="shape=tableRow;horizontal=0;startSize=0;swimlaneHead=0;swimlaneBody=0;fillColor=none;collapsible=0;dropTarget=0;points=[[0,0.5],[1,0.5]];portConstraint=eastwest;top=0;left=0;right=0;bottom=0;" vertex="1" parent="lxnCnVTD18VQQBiebtyx-42">
          <mxGeometry y="25" width="282" height="45" as="geometry" />
        </mxCell>
        <mxCell id="lxnCnVTD18VQQBiebtyx-44" value="string" style="shape=partialRectangle;connectable=0;fillColor=none;top=0;left=0;bottom=0;right=0;align=left;spacingLeft=2;overflow=hidden;fontSize=11;" vertex="1" parent="lxnCnVTD18VQQBiebtyx-43">
          <mxGeometry width="48" height="45" as="geometry">
            <mxRectangle width="48" height="45" as="alternateBounds" />
          </mxGeometry>
        </mxCell>
        <mxCell id="lxnCnVTD18VQQBiebtyx-45" value="order_id" style="shape=partialRectangle;connectable=0;fillColor=none;top=0;left=0;bottom=0;right=0;align=left;spacingLeft=2;overflow=hidden;fontSize=11;" vertex="1" parent="lxnCnVTD18VQQBiebtyx-43">
          <mxGeometry x="48" width="222" height="45" as="geometry">
            <mxRectangle width="222" height="45" as="alternateBounds" />
          </mxGeometry>
        </mxCell>
        <mxCell id="lxnCnVTD18VQQBiebtyx-46" value="PK" style="shape=partialRectangle;connectable=0;fillColor=none;top=0;left=0;bottom=0;right=0;align=left;spacingLeft=2;overflow=hidden;fontSize=11;" vertex="1" parent="lxnCnVTD18VQQBiebtyx-43">
          <mxGeometry x="270" width="12" height="45" as="geometry">
            <mxRectangle width="12" height="45" as="alternateBounds" />
          </mxGeometry>
        </mxCell>
        <mxCell id="lxnCnVTD18VQQBiebtyx-47" style="shape=tableRow;horizontal=0;startSize=0;swimlaneHead=0;swimlaneBody=0;fillColor=none;collapsible=0;dropTarget=0;points=[[0,0.5],[1,0.5]];portConstraint=eastwest;top=0;left=0;right=0;bottom=0;" vertex="1" parent="lxnCnVTD18VQQBiebtyx-42">
          <mxGeometry y="70" width="282" height="45" as="geometry" />
        </mxCell>
        <mxCell id="lxnCnVTD18VQQBiebtyx-48" value="string" style="shape=partialRectangle;connectable=0;fillColor=none;top=0;left=0;bottom=0;right=0;align=left;spacingLeft=2;overflow=hidden;fontSize=11;" vertex="1" parent="lxnCnVTD18VQQBiebtyx-47">
          <mxGeometry width="48" height="45" as="geometry">
            <mxRectangle width="48" height="45" as="alternateBounds" />
          </mxGeometry>
        </mxCell>
        <mxCell id="lxnCnVTD18VQQBiebtyx-49" value="user_key" style="shape=partialRectangle;connectable=0;fillColor=none;top=0;left=0;bottom=0;right=0;align=left;spacingLeft=2;overflow=hidden;fontSize=11;" vertex="1" parent="lxnCnVTD18VQQBiebtyx-47">
          <mxGeometry x="48" width="222" height="45" as="geometry">
            <mxRectangle width="222" height="45" as="alternateBounds" />
          </mxGeometry>
        </mxCell>
        <mxCell id="lxnCnVTD18VQQBiebtyx-50" value="FK" style="shape=partialRectangle;connectable=0;fillColor=none;top=0;left=0;bottom=0;right=0;align=left;spacingLeft=2;overflow=hidden;fontSize=11;" vertex="1" parent="lxnCnVTD18VQQBiebtyx-47">
          <mxGeometry x="270" width="12" height="45" as="geometry">
            <mxRectangle width="12" height="45" as="alternateBounds" />
          </mxGeometry>
        </mxCell>
        <mxCell id="lxnCnVTD18VQQBiebtyx-51" style="shape=tableRow;horizontal=0;startSize=0;swimlaneHead=0;swimlaneBody=0;fillColor=none;collapsible=0;dropTarget=0;points=[[0,0.5],[1,0.5]];portConstraint=eastwest;top=0;left=0;right=0;bottom=0;" vertex="1" parent="lxnCnVTD18VQQBiebtyx-42">
          <mxGeometry y="115" width="282" height="45" as="geometry" />
        </mxCell>
        <mxCell id="lxnCnVTD18VQQBiebtyx-52" value="string" style="shape=partialRectangle;connectable=0;fillColor=none;top=0;left=0;bottom=0;right=0;align=left;spacingLeft=2;overflow=hidden;fontSize=11;" vertex="1" parent="lxnCnVTD18VQQBiebtyx-51">
          <mxGeometry width="48" height="45" as="geometry">
            <mxRectangle width="48" height="45" as="alternateBounds" />
          </mxGeometry>
        </mxCell>
        <mxCell id="lxnCnVTD18VQQBiebtyx-53" value="product_key" style="shape=partialRectangle;connectable=0;fillColor=none;top=0;left=0;bottom=0;right=0;align=left;spacingLeft=2;overflow=hidden;fontSize=11;" vertex="1" parent="lxnCnVTD18VQQBiebtyx-51">
          <mxGeometry x="48" width="222" height="45" as="geometry">
            <mxRectangle width="222" height="45" as="alternateBounds" />
          </mxGeometry>
        </mxCell>
        <mxCell id="lxnCnVTD18VQQBiebtyx-54" value="FK" style="shape=partialRectangle;connectable=0;fillColor=none;top=0;left=0;bottom=0;right=0;align=left;spacingLeft=2;overflow=hidden;fontSize=11;" vertex="1" parent="lxnCnVTD18VQQBiebtyx-51">
          <mxGeometry x="270" width="12" height="45" as="geometry">
            <mxRectangle width="12" height="45" as="alternateBounds" />
          </mxGeometry>
        </mxCell>
        <mxCell id="lxnCnVTD18VQQBiebtyx-55" style="shape=tableRow;horizontal=0;startSize=0;swimlaneHead=0;swimlaneBody=0;fillColor=none;collapsible=0;dropTarget=0;points=[[0,0.5],[1,0.5]];portConstraint=eastwest;top=0;left=0;right=0;bottom=0;" vertex="1" parent="lxnCnVTD18VQQBiebtyx-42">
          <mxGeometry y="160" width="282" height="45" as="geometry" />
        </mxCell>
        <mxCell id="lxnCnVTD18VQQBiebtyx-56" value="string" style="shape=partialRectangle;connectable=0;fillColor=none;top=0;left=0;bottom=0;right=0;align=left;spacingLeft=2;overflow=hidden;fontSize=11;" vertex="1" parent="lxnCnVTD18VQQBiebtyx-55">
          <mxGeometry width="48" height="45" as="geometry">
            <mxRectangle width="48" height="45" as="alternateBounds" />
          </mxGeometry>
        </mxCell>
        <mxCell id="lxnCnVTD18VQQBiebtyx-57" value="store_key" style="shape=partialRectangle;connectable=0;fillColor=none;top=0;left=0;bottom=0;right=0;align=left;spacingLeft=2;overflow=hidden;fontSize=11;" vertex="1" parent="lxnCnVTD18VQQBiebtyx-55">
          <mxGeometry x="48" width="222" height="45" as="geometry">
            <mxRectangle width="222" height="45" as="alternateBounds" />
          </mxGeometry>
        </mxCell>
        <mxCell id="lxnCnVTD18VQQBiebtyx-58" value="FK" style="shape=partialRectangle;connectable=0;fillColor=none;top=0;left=0;bottom=0;right=0;align=left;spacingLeft=2;overflow=hidden;fontSize=11;" vertex="1" parent="lxnCnVTD18VQQBiebtyx-55">
          <mxGeometry x="270" width="12" height="45" as="geometry">
            <mxRectangle width="12" height="45" as="alternateBounds" />
          </mxGeometry>
        </mxCell>
        <mxCell id="lxnCnVTD18VQQBiebtyx-59" style="shape=tableRow;horizontal=0;startSize=0;swimlaneHead=0;swimlaneBody=0;fillColor=none;collapsible=0;dropTarget=0;points=[[0,0.5],[1,0.5]];portConstraint=eastwest;top=0;left=0;right=0;bottom=0;" vertex="1" parent="lxnCnVTD18VQQBiebtyx-42">
          <mxGeometry y="205" width="282" height="45" as="geometry" />
        </mxCell>
        <mxCell id="lxnCnVTD18VQQBiebtyx-60" value="datetime" style="shape=partialRectangle;connectable=0;fillColor=none;top=0;left=0;bottom=0;right=0;align=left;spacingLeft=2;overflow=hidden;fontSize=11;" vertex="1" parent="lxnCnVTD18VQQBiebtyx-59">
          <mxGeometry width="48" height="45" as="geometry">
            <mxRectangle width="48" height="45" as="alternateBounds" />
          </mxGeometry>
        </mxCell>
        <mxCell id="lxnCnVTD18VQQBiebtyx-61" value="order_timestamp" style="shape=partialRectangle;connectable=0;fillColor=none;top=0;left=0;bottom=0;right=0;align=left;spacingLeft=2;overflow=hidden;fontSize=11;" vertex="1" parent="lxnCnVTD18VQQBiebtyx-59">
          <mxGeometry x="48" width="222" height="45" as="geometry">
            <mxRectangle width="222" height="45" as="alternateBounds" />
          </mxGeometry>
        </mxCell>
        <mxCell id="lxnCnVTD18VQQBiebtyx-62" value="" style="shape=partialRectangle;connectable=0;fillColor=none;top=0;left=0;bottom=0;right=0;align=left;spacingLeft=2;overflow=hidden;fontSize=11;" vertex="1" parent="lxnCnVTD18VQQBiebtyx-59">
          <mxGeometry x="270" width="12" height="45" as="geometry">
            <mxRectangle width="12" height="45" as="alternateBounds" />
          </mxGeometry>
        </mxCell>
        <mxCell id="lxnCnVTD18VQQBiebtyx-63" style="shape=tableRow;horizontal=0;startSize=0;swimlaneHead=0;swimlaneBody=0;fillColor=none;collapsible=0;dropTarget=0;points=[[0,0.5],[1,0.5]];portConstraint=eastwest;top=0;left=0;right=0;bottom=0;" vertex="1" parent="lxnCnVTD18VQQBiebtyx-42">
          <mxGeometry y="250" width="282" height="45" as="geometry" />
        </mxCell>
        <mxCell id="lxnCnVTD18VQQBiebtyx-64" value="string" style="shape=partialRectangle;connectable=0;fillColor=none;top=0;left=0;bottom=0;right=0;align=left;spacingLeft=2;overflow=hidden;fontSize=11;" vertex="1" parent="lxnCnVTD18VQQBiebtyx-63">
          <mxGeometry width="48" height="45" as="geometry">
            <mxRectangle width="48" height="45" as="alternateBounds" />
          </mxGeometry>
        </mxCell>
        <mxCell id="lxnCnVTD18VQQBiebtyx-65" value="source_channel" style="shape=partialRectangle;connectable=0;fillColor=none;top=0;left=0;bottom=0;right=0;align=left;spacingLeft=2;overflow=hidden;fontSize=11;" vertex="1" parent="lxnCnVTD18VQQBiebtyx-63">
          <mxGeometry x="48" width="222" height="45" as="geometry">
            <mxRectangle width="222" height="45" as="alternateBounds" />
          </mxGeometry>
        </mxCell>
        <mxCell id="lxnCnVTD18VQQBiebtyx-66" value="" style="shape=partialRectangle;connectable=0;fillColor=none;top=0;left=0;bottom=0;right=0;align=left;spacingLeft=2;overflow=hidden;fontSize=11;" vertex="1" parent="lxnCnVTD18VQQBiebtyx-63">
          <mxGeometry x="270" width="12" height="45" as="geometry">
            <mxRectangle width="12" height="45" as="alternateBounds" />
          </mxGeometry>
        </mxCell>
        <mxCell id="lxnCnVTD18VQQBiebtyx-67" style="shape=tableRow;horizontal=0;startSize=0;swimlaneHead=0;swimlaneBody=0;fillColor=none;collapsible=0;dropTarget=0;points=[[0,0.5],[1,0.5]];portConstraint=eastwest;top=0;left=0;right=0;bottom=0;" vertex="1" parent="lxnCnVTD18VQQBiebtyx-42">
          <mxGeometry y="295" width="282" height="45" as="geometry" />
        </mxCell>
        <mxCell id="lxnCnVTD18VQQBiebtyx-68" value="decimal" style="shape=partialRectangle;connectable=0;fillColor=none;top=0;left=0;bottom=0;right=0;align=left;spacingLeft=2;overflow=hidden;fontSize=11;" vertex="1" parent="lxnCnVTD18VQQBiebtyx-67">
          <mxGeometry width="48" height="45" as="geometry">
            <mxRectangle width="48" height="45" as="alternateBounds" />
          </mxGeometry>
        </mxCell>
        <mxCell id="lxnCnVTD18VQQBiebtyx-69" value="total_amount" style="shape=partialRectangle;connectable=0;fillColor=none;top=0;left=0;bottom=0;right=0;align=left;spacingLeft=2;overflow=hidden;fontSize=11;" vertex="1" parent="lxnCnVTD18VQQBiebtyx-67">
          <mxGeometry x="48" width="222" height="45" as="geometry">
            <mxRectangle width="222" height="45" as="alternateBounds" />
          </mxGeometry>
        </mxCell>
        <mxCell id="lxnCnVTD18VQQBiebtyx-70" value="" style="shape=partialRectangle;connectable=0;fillColor=none;top=0;left=0;bottom=0;right=0;align=left;spacingLeft=2;overflow=hidden;fontSize=11;" vertex="1" parent="lxnCnVTD18VQQBiebtyx-67">
          <mxGeometry x="270" width="12" height="45" as="geometry">
            <mxRectangle width="12" height="45" as="alternateBounds" />
          </mxGeometry>
        </mxCell>
        <mxCell id="lxnCnVTD18VQQBiebtyx-71" style="shape=tableRow;horizontal=0;startSize=0;swimlaneHead=0;swimlaneBody=0;fillColor=none;collapsible=0;dropTarget=0;points=[[0,0.5],[1,0.5]];portConstraint=eastwest;top=0;left=0;right=0;bottom=0;" vertex="1" parent="lxnCnVTD18VQQBiebtyx-42">
          <mxGeometry y="340" width="282" height="45" as="geometry" />
        </mxCell>
        <mxCell id="lxnCnVTD18VQQBiebtyx-72" value="int" style="shape=partialRectangle;connectable=0;fillColor=none;top=0;left=0;bottom=0;right=0;align=left;spacingLeft=2;overflow=hidden;fontSize=11;" vertex="1" parent="lxnCnVTD18VQQBiebtyx-71">
          <mxGeometry width="48" height="45" as="geometry">
            <mxRectangle width="48" height="45" as="alternateBounds" />
          </mxGeometry>
        </mxCell>
        <mxCell id="lxnCnVTD18VQQBiebtyx-73" value="quantity" style="shape=partialRectangle;connectable=0;fillColor=none;top=0;left=0;bottom=0;right=0;align=left;spacingLeft=2;overflow=hidden;fontSize=11;" vertex="1" parent="lxnCnVTD18VQQBiebtyx-71">
          <mxGeometry x="48" width="222" height="45" as="geometry">
            <mxRectangle width="222" height="45" as="alternateBounds" />
          </mxGeometry>
        </mxCell>
        <mxCell id="lxnCnVTD18VQQBiebtyx-74" value="" style="shape=partialRectangle;connectable=0;fillColor=none;top=0;left=0;bottom=0;right=0;align=left;spacingLeft=2;overflow=hidden;fontSize=11;" vertex="1" parent="lxnCnVTD18VQQBiebtyx-71">
          <mxGeometry x="270" width="12" height="45" as="geometry">
            <mxRectangle width="12" height="45" as="alternateBounds" />
          </mxGeometry>
        </mxCell>
        <mxCell id="lxnCnVTD18VQQBiebtyx-75" value="PRODUCTS" style="shape=table;startSize=25;container=1;collapsible=0;childLayout=tableLayout;fixedRows=1;rowLines=1;fontStyle=1;align=center;resizeLast=1;" vertex="1" parent="1">
          <mxGeometry x="506" y="636" width="245" height="214" as="geometry" />
        </mxCell>
        <mxCell id="lxnCnVTD18VQQBiebtyx-76" style="shape=tableRow;horizontal=0;startSize=0;swimlaneHead=0;swimlaneBody=0;fillColor=none;collapsible=0;dropTarget=0;points=[[0,0.5],[1,0.5]];portConstraint=eastwest;top=0;left=0;right=0;bottom=0;" vertex="1" parent="lxnCnVTD18VQQBiebtyx-75">
          <mxGeometry y="25" width="237" height="47" as="geometry" />
        </mxCell>
        <mxCell id="lxnCnVTD18VQQBiebtyx-77" value="string" style="shape=partialRectangle;connectable=0;fillColor=none;top=0;left=0;bottom=0;right=0;align=left;spacingLeft=2;overflow=hidden;fontSize=11;" vertex="1" parent="lxnCnVTD18VQQBiebtyx-76">
          <mxGeometry width="36" height="47" as="geometry">
            <mxRectangle width="36" height="47" as="alternateBounds" />
          </mxGeometry>
        </mxCell>
        <mxCell id="lxnCnVTD18VQQBiebtyx-78" value="product_key" style="shape=partialRectangle;connectable=0;fillColor=none;top=0;left=0;bottom=0;right=0;align=left;spacingLeft=2;overflow=hidden;fontSize=11;" vertex="1" parent="lxnCnVTD18VQQBiebtyx-76">
          <mxGeometry x="36" width="189" height="47" as="geometry">
            <mxRectangle width="189" height="47" as="alternateBounds" />
          </mxGeometry>
        </mxCell>
        <mxCell id="lxnCnVTD18VQQBiebtyx-79" value="PK" style="shape=partialRectangle;connectable=0;fillColor=none;top=0;left=0;bottom=0;right=0;align=left;spacingLeft=2;overflow=hidden;fontSize=11;" vertex="1" parent="lxnCnVTD18VQQBiebtyx-76">
          <mxGeometry x="225" width="12" height="47" as="geometry">
            <mxRectangle width="12" height="47" as="alternateBounds" />
          </mxGeometry>
        </mxCell>
        <mxCell id="lxnCnVTD18VQQBiebtyx-80" style="shape=tableRow;horizontal=0;startSize=0;swimlaneHead=0;swimlaneBody=0;fillColor=none;collapsible=0;dropTarget=0;points=[[0,0.5],[1,0.5]];portConstraint=eastwest;top=0;left=0;right=0;bottom=0;" vertex="1" parent="lxnCnVTD18VQQBiebtyx-75">
          <mxGeometry y="72" width="237" height="47" as="geometry" />
        </mxCell>
        <mxCell id="lxnCnVTD18VQQBiebtyx-81" value="string" style="shape=partialRectangle;connectable=0;fillColor=none;top=0;left=0;bottom=0;right=0;align=left;spacingLeft=2;overflow=hidden;fontSize=11;" vertex="1" parent="lxnCnVTD18VQQBiebtyx-80">
          <mxGeometry width="36" height="47" as="geometry">
            <mxRectangle width="36" height="47" as="alternateBounds" />
          </mxGeometry>
        </mxCell>
        <mxCell id="lxnCnVTD18VQQBiebtyx-82" value="product_id" style="shape=partialRectangle;connectable=0;fillColor=none;top=0;left=0;bottom=0;right=0;align=left;spacingLeft=2;overflow=hidden;fontSize=11;" vertex="1" parent="lxnCnVTD18VQQBiebtyx-80">
          <mxGeometry x="36" width="189" height="47" as="geometry">
            <mxRectangle width="189" height="47" as="alternateBounds" />
          </mxGeometry>
        </mxCell>
        <mxCell id="lxnCnVTD18VQQBiebtyx-83" value="" style="shape=partialRectangle;connectable=0;fillColor=none;top=0;left=0;bottom=0;right=0;align=left;spacingLeft=2;overflow=hidden;fontSize=11;" vertex="1" parent="lxnCnVTD18VQQBiebtyx-80">
          <mxGeometry x="225" width="12" height="47" as="geometry">
            <mxRectangle width="12" height="47" as="alternateBounds" />
          </mxGeometry>
        </mxCell>
        <mxCell id="lxnCnVTD18VQQBiebtyx-84" style="shape=tableRow;horizontal=0;startSize=0;swimlaneHead=0;swimlaneBody=0;fillColor=none;collapsible=0;dropTarget=0;points=[[0,0.5],[1,0.5]];portConstraint=eastwest;top=0;left=0;right=0;bottom=0;" vertex="1" parent="lxnCnVTD18VQQBiebtyx-75">
          <mxGeometry y="119" width="237" height="47" as="geometry" />
        </mxCell>
        <mxCell id="lxnCnVTD18VQQBiebtyx-85" value="string" style="shape=partialRectangle;connectable=0;fillColor=none;top=0;left=0;bottom=0;right=0;align=left;spacingLeft=2;overflow=hidden;fontSize=11;" vertex="1" parent="lxnCnVTD18VQQBiebtyx-84">
          <mxGeometry width="36" height="47" as="geometry">
            <mxRectangle width="36" height="47" as="alternateBounds" />
          </mxGeometry>
        </mxCell>
        <mxCell id="lxnCnVTD18VQQBiebtyx-86" value="product_name" style="shape=partialRectangle;connectable=0;fillColor=none;top=0;left=0;bottom=0;right=0;align=left;spacingLeft=2;overflow=hidden;fontSize=11;" vertex="1" parent="lxnCnVTD18VQQBiebtyx-84">
          <mxGeometry x="36" width="189" height="47" as="geometry">
            <mxRectangle width="189" height="47" as="alternateBounds" />
          </mxGeometry>
        </mxCell>
        <mxCell id="lxnCnVTD18VQQBiebtyx-87" value="" style="shape=partialRectangle;connectable=0;fillColor=none;top=0;left=0;bottom=0;right=0;align=left;spacingLeft=2;overflow=hidden;fontSize=11;" vertex="1" parent="lxnCnVTD18VQQBiebtyx-84">
          <mxGeometry x="225" width="12" height="47" as="geometry">
            <mxRectangle width="12" height="47" as="alternateBounds" />
          </mxGeometry>
        </mxCell>
        <mxCell id="lxnCnVTD18VQQBiebtyx-88" style="shape=tableRow;horizontal=0;startSize=0;swimlaneHead=0;swimlaneBody=0;fillColor=none;collapsible=0;dropTarget=0;points=[[0,0.5],[1,0.5]];portConstraint=eastwest;top=0;left=0;right=0;bottom=0;" vertex="1" parent="lxnCnVTD18VQQBiebtyx-75">
          <mxGeometry y="166" width="237" height="47" as="geometry" />
        </mxCell>
        <mxCell id="lxnCnVTD18VQQBiebtyx-89" value="string" style="shape=partialRectangle;connectable=0;fillColor=none;top=0;left=0;bottom=0;right=0;align=left;spacingLeft=2;overflow=hidden;fontSize=11;" vertex="1" parent="lxnCnVTD18VQQBiebtyx-88">
          <mxGeometry width="36" height="47" as="geometry">
            <mxRectangle width="36" height="47" as="alternateBounds" />
          </mxGeometry>
        </mxCell>
        <mxCell id="lxnCnVTD18VQQBiebtyx-90" value="category" style="shape=partialRectangle;connectable=0;fillColor=none;top=0;left=0;bottom=0;right=0;align=left;spacingLeft=2;overflow=hidden;fontSize=11;" vertex="1" parent="lxnCnVTD18VQQBiebtyx-88">
          <mxGeometry x="36" width="189" height="47" as="geometry">
            <mxRectangle width="189" height="47" as="alternateBounds" />
          </mxGeometry>
        </mxCell>
        <mxCell id="lxnCnVTD18VQQBiebtyx-91" value="" style="shape=partialRectangle;connectable=0;fillColor=none;top=0;left=0;bottom=0;right=0;align=left;spacingLeft=2;overflow=hidden;fontSize=11;" vertex="1" parent="lxnCnVTD18VQQBiebtyx-88">
          <mxGeometry x="225" width="12" height="47" as="geometry">
            <mxRectangle width="12" height="47" as="alternateBounds" />
          </mxGeometry>
        </mxCell>
        <mxCell id="lxnCnVTD18VQQBiebtyx-92" value="STORES" style="shape=table;startSize=25;container=1;collapsible=0;childLayout=tableLayout;fixedRows=1;rowLines=1;fontStyle=1;align=center;resizeLast=1;" vertex="1" parent="1">
          <mxGeometry x="883" y="636" width="225" height="214" as="geometry" />
        </mxCell>
        <mxCell id="lxnCnVTD18VQQBiebtyx-93" style="shape=tableRow;horizontal=0;startSize=0;swimlaneHead=0;swimlaneBody=0;fillColor=none;collapsible=0;dropTarget=0;points=[[0,0.5],[1,0.5]];portConstraint=eastwest;top=0;left=0;right=0;bottom=0;" vertex="1" parent="lxnCnVTD18VQQBiebtyx-92">
          <mxGeometry y="25" width="217" height="47" as="geometry" />
        </mxCell>
        <mxCell id="lxnCnVTD18VQQBiebtyx-94" value="string" style="shape=partialRectangle;connectable=0;fillColor=none;top=0;left=0;bottom=0;right=0;align=left;spacingLeft=2;overflow=hidden;fontSize=11;" vertex="1" parent="lxnCnVTD18VQQBiebtyx-93">
          <mxGeometry width="36" height="47" as="geometry">
            <mxRectangle width="36" height="47" as="alternateBounds" />
          </mxGeometry>
        </mxCell>
        <mxCell id="lxnCnVTD18VQQBiebtyx-95" value="store_key" style="shape=partialRectangle;connectable=0;fillColor=none;top=0;left=0;bottom=0;right=0;align=left;spacingLeft=2;overflow=hidden;fontSize=11;" vertex="1" parent="lxnCnVTD18VQQBiebtyx-93">
          <mxGeometry x="36" width="169" height="47" as="geometry">
            <mxRectangle width="169" height="47" as="alternateBounds" />
          </mxGeometry>
        </mxCell>
        <mxCell id="lxnCnVTD18VQQBiebtyx-96" value="PK" style="shape=partialRectangle;connectable=0;fillColor=none;top=0;left=0;bottom=0;right=0;align=left;spacingLeft=2;overflow=hidden;fontSize=11;" vertex="1" parent="lxnCnVTD18VQQBiebtyx-93">
          <mxGeometry x="205" width="12" height="47" as="geometry">
            <mxRectangle width="12" height="47" as="alternateBounds" />
          </mxGeometry>
        </mxCell>
        <mxCell id="lxnCnVTD18VQQBiebtyx-97" style="shape=tableRow;horizontal=0;startSize=0;swimlaneHead=0;swimlaneBody=0;fillColor=none;collapsible=0;dropTarget=0;points=[[0,0.5],[1,0.5]];portConstraint=eastwest;top=0;left=0;right=0;bottom=0;" vertex="1" parent="lxnCnVTD18VQQBiebtyx-92">
          <mxGeometry y="72" width="217" height="47" as="geometry" />
        </mxCell>
        <mxCell id="lxnCnVTD18VQQBiebtyx-98" value="string" style="shape=partialRectangle;connectable=0;fillColor=none;top=0;left=0;bottom=0;right=0;align=left;spacingLeft=2;overflow=hidden;fontSize=11;" vertex="1" parent="lxnCnVTD18VQQBiebtyx-97">
          <mxGeometry width="36" height="47" as="geometry">
            <mxRectangle width="36" height="47" as="alternateBounds" />
          </mxGeometry>
        </mxCell>
        <mxCell id="lxnCnVTD18VQQBiebtyx-99" value="store_id" style="shape=partialRectangle;connectable=0;fillColor=none;top=0;left=0;bottom=0;right=0;align=left;spacingLeft=2;overflow=hidden;fontSize=11;" vertex="1" parent="lxnCnVTD18VQQBiebtyx-97">
          <mxGeometry x="36" width="169" height="47" as="geometry">
            <mxRectangle width="169" height="47" as="alternateBounds" />
          </mxGeometry>
        </mxCell>
        <mxCell id="lxnCnVTD18VQQBiebtyx-100" value="" style="shape=partialRectangle;connectable=0;fillColor=none;top=0;left=0;bottom=0;right=0;align=left;spacingLeft=2;overflow=hidden;fontSize=11;" vertex="1" parent="lxnCnVTD18VQQBiebtyx-97">
          <mxGeometry x="205" width="12" height="47" as="geometry">
            <mxRectangle width="12" height="47" as="alternateBounds" />
          </mxGeometry>
        </mxCell>
        <mxCell id="lxnCnVTD18VQQBiebtyx-101" style="shape=tableRow;horizontal=0;startSize=0;swimlaneHead=0;swimlaneBody=0;fillColor=none;collapsible=0;dropTarget=0;points=[[0,0.5],[1,0.5]];portConstraint=eastwest;top=0;left=0;right=0;bottom=0;" vertex="1" parent="lxnCnVTD18VQQBiebtyx-92">
          <mxGeometry y="119" width="217" height="47" as="geometry" />
        </mxCell>
        <mxCell id="lxnCnVTD18VQQBiebtyx-102" value="string" style="shape=partialRectangle;connectable=0;fillColor=none;top=0;left=0;bottom=0;right=0;align=left;spacingLeft=2;overflow=hidden;fontSize=11;" vertex="1" parent="lxnCnVTD18VQQBiebtyx-101">
          <mxGeometry width="36" height="47" as="geometry">
            <mxRectangle width="36" height="47" as="alternateBounds" />
          </mxGeometry>
        </mxCell>
        <mxCell id="lxnCnVTD18VQQBiebtyx-103" value="store_name" style="shape=partialRectangle;connectable=0;fillColor=none;top=0;left=0;bottom=0;right=0;align=left;spacingLeft=2;overflow=hidden;fontSize=11;" vertex="1" parent="lxnCnVTD18VQQBiebtyx-101">
          <mxGeometry x="36" width="169" height="47" as="geometry">
            <mxRectangle width="169" height="47" as="alternateBounds" />
          </mxGeometry>
        </mxCell>
        <mxCell id="lxnCnVTD18VQQBiebtyx-104" value="" style="shape=partialRectangle;connectable=0;fillColor=none;top=0;left=0;bottom=0;right=0;align=left;spacingLeft=2;overflow=hidden;fontSize=11;" vertex="1" parent="lxnCnVTD18VQQBiebtyx-101">
          <mxGeometry x="205" width="12" height="47" as="geometry">
            <mxRectangle width="12" height="47" as="alternateBounds" />
          </mxGeometry>
        </mxCell>
        <mxCell id="lxnCnVTD18VQQBiebtyx-105" style="shape=tableRow;horizontal=0;startSize=0;swimlaneHead=0;swimlaneBody=0;fillColor=none;collapsible=0;dropTarget=0;points=[[0,0.5],[1,0.5]];portConstraint=eastwest;top=0;left=0;right=0;bottom=0;" vertex="1" parent="lxnCnVTD18VQQBiebtyx-92">
          <mxGeometry y="166" width="217" height="47" as="geometry" />
        </mxCell>
        <mxCell id="lxnCnVTD18VQQBiebtyx-106" value="string" style="shape=partialRectangle;connectable=0;fillColor=none;top=0;left=0;bottom=0;right=0;align=left;spacingLeft=2;overflow=hidden;fontSize=11;" vertex="1" parent="lxnCnVTD18VQQBiebtyx-105">
          <mxGeometry width="36" height="47" as="geometry">
            <mxRectangle width="36" height="47" as="alternateBounds" />
          </mxGeometry>
        </mxCell>
        <mxCell id="lxnCnVTD18VQQBiebtyx-107" value="city" style="shape=partialRectangle;connectable=0;fillColor=none;top=0;left=0;bottom=0;right=0;align=left;spacingLeft=2;overflow=hidden;fontSize=11;" vertex="1" parent="lxnCnVTD18VQQBiebtyx-105">
          <mxGeometry x="36" width="169" height="47" as="geometry">
            <mxRectangle width="169" height="47" as="alternateBounds" />
          </mxGeometry>
        </mxCell>
        <mxCell id="lxnCnVTD18VQQBiebtyx-108" value="" style="shape=partialRectangle;connectable=0;fillColor=none;top=0;left=0;bottom=0;right=0;align=left;spacingLeft=2;overflow=hidden;fontSize=11;" vertex="1" parent="lxnCnVTD18VQQBiebtyx-105">
          <mxGeometry x="205" width="12" height="47" as="geometry">
            <mxRectangle width="12" height="47" as="alternateBounds" />
          </mxGeometry>
        </mxCell>
        <mxCell id="lxnCnVTD18VQQBiebtyx-109" value="EVENTS" style="shape=table;startSize=25;container=1;collapsible=0;childLayout=tableLayout;fixedRows=1;rowLines=1;fontStyle=1;align=center;resizeLast=1;" vertex="1" parent="1">
          <mxGeometry x="20" y="84" width="292" height="257" as="geometry" />
        </mxCell>
        <mxCell id="lxnCnVTD18VQQBiebtyx-110" style="shape=tableRow;horizontal=0;startSize=0;swimlaneHead=0;swimlaneBody=0;fillColor=none;collapsible=0;dropTarget=0;points=[[0,0.5],[1,0.5]];portConstraint=eastwest;top=0;left=0;right=0;bottom=0;" vertex="1" parent="lxnCnVTD18VQQBiebtyx-109">
          <mxGeometry y="25" width="284" height="46" as="geometry" />
        </mxCell>
        <mxCell id="lxnCnVTD18VQQBiebtyx-111" value="string" style="shape=partialRectangle;connectable=0;fillColor=none;top=0;left=0;bottom=0;right=0;align=left;spacingLeft=2;overflow=hidden;fontSize=11;" vertex="1" parent="lxnCnVTD18VQQBiebtyx-110">
          <mxGeometry width="48" height="46" as="geometry">
            <mxRectangle width="48" height="46" as="alternateBounds" />
          </mxGeometry>
        </mxCell>
        <mxCell id="lxnCnVTD18VQQBiebtyx-112" value="event_id" style="shape=partialRectangle;connectable=0;fillColor=none;top=0;left=0;bottom=0;right=0;align=left;spacingLeft=2;overflow=hidden;fontSize=11;" vertex="1" parent="lxnCnVTD18VQQBiebtyx-110">
          <mxGeometry x="48" width="224" height="46" as="geometry">
            <mxRectangle width="224" height="46" as="alternateBounds" />
          </mxGeometry>
        </mxCell>
        <mxCell id="lxnCnVTD18VQQBiebtyx-113" value="PK" style="shape=partialRectangle;connectable=0;fillColor=none;top=0;left=0;bottom=0;right=0;align=left;spacingLeft=2;overflow=hidden;fontSize=11;" vertex="1" parent="lxnCnVTD18VQQBiebtyx-110">
          <mxGeometry x="272" width="12" height="46" as="geometry">
            <mxRectangle width="12" height="46" as="alternateBounds" />
          </mxGeometry>
        </mxCell>
        <mxCell id="lxnCnVTD18VQQBiebtyx-114" style="shape=tableRow;horizontal=0;startSize=0;swimlaneHead=0;swimlaneBody=0;fillColor=none;collapsible=0;dropTarget=0;points=[[0,0.5],[1,0.5]];portConstraint=eastwest;top=0;left=0;right=0;bottom=0;" vertex="1" parent="lxnCnVTD18VQQBiebtyx-109">
          <mxGeometry y="71" width="284" height="46" as="geometry" />
        </mxCell>
        <mxCell id="lxnCnVTD18VQQBiebtyx-115" value="string" style="shape=partialRectangle;connectable=0;fillColor=none;top=0;left=0;bottom=0;right=0;align=left;spacingLeft=2;overflow=hidden;fontSize=11;" vertex="1" parent="lxnCnVTD18VQQBiebtyx-114">
          <mxGeometry width="48" height="46" as="geometry">
            <mxRectangle width="48" height="46" as="alternateBounds" />
          </mxGeometry>
        </mxCell>
        <mxCell id="lxnCnVTD18VQQBiebtyx-116" value="master_user_id" style="shape=partialRectangle;connectable=0;fillColor=none;top=0;left=0;bottom=0;right=0;align=left;spacingLeft=2;overflow=hidden;fontSize=11;" vertex="1" parent="lxnCnVTD18VQQBiebtyx-114">
          <mxGeometry x="48" width="224" height="46" as="geometry">
            <mxRectangle width="224" height="46" as="alternateBounds" />
          </mxGeometry>
        </mxCell>
        <mxCell id="lxnCnVTD18VQQBiebtyx-117" value="" style="shape=partialRectangle;connectable=0;fillColor=none;top=0;left=0;bottom=0;right=0;align=left;spacingLeft=2;overflow=hidden;fontSize=11;" vertex="1" parent="lxnCnVTD18VQQBiebtyx-114">
          <mxGeometry x="272" width="12" height="46" as="geometry">
            <mxRectangle width="12" height="46" as="alternateBounds" />
          </mxGeometry>
        </mxCell>
        <mxCell id="lxnCnVTD18VQQBiebtyx-118" style="shape=tableRow;horizontal=0;startSize=0;swimlaneHead=0;swimlaneBody=0;fillColor=none;collapsible=0;dropTarget=0;points=[[0,0.5],[1,0.5]];portConstraint=eastwest;top=0;left=0;right=0;bottom=0;" vertex="1" parent="lxnCnVTD18VQQBiebtyx-109">
          <mxGeometry y="117" width="284" height="46" as="geometry" />
        </mxCell>
        <mxCell id="lxnCnVTD18VQQBiebtyx-119" value="datetime" style="shape=partialRectangle;connectable=0;fillColor=none;top=0;left=0;bottom=0;right=0;align=left;spacingLeft=2;overflow=hidden;fontSize=11;" vertex="1" parent="lxnCnVTD18VQQBiebtyx-118">
          <mxGeometry width="48" height="46" as="geometry">
            <mxRectangle width="48" height="46" as="alternateBounds" />
          </mxGeometry>
        </mxCell>
        <mxCell id="lxnCnVTD18VQQBiebtyx-120" value="event_timestamp" style="shape=partialRectangle;connectable=0;fillColor=none;top=0;left=0;bottom=0;right=0;align=left;spacingLeft=2;overflow=hidden;fontSize=11;" vertex="1" parent="lxnCnVTD18VQQBiebtyx-118">
          <mxGeometry x="48" width="224" height="46" as="geometry">
            <mxRectangle width="224" height="46" as="alternateBounds" />
          </mxGeometry>
        </mxCell>
        <mxCell id="lxnCnVTD18VQQBiebtyx-121" value="" style="shape=partialRectangle;connectable=0;fillColor=none;top=0;left=0;bottom=0;right=0;align=left;spacingLeft=2;overflow=hidden;fontSize=11;" vertex="1" parent="lxnCnVTD18VQQBiebtyx-118">
          <mxGeometry x="272" width="12" height="46" as="geometry">
            <mxRectangle width="12" height="46" as="alternateBounds" />
          </mxGeometry>
        </mxCell>
        <mxCell id="lxnCnVTD18VQQBiebtyx-122" style="shape=tableRow;horizontal=0;startSize=0;swimlaneHead=0;swimlaneBody=0;fillColor=none;collapsible=0;dropTarget=0;points=[[0,0.5],[1,0.5]];portConstraint=eastwest;top=0;left=0;right=0;bottom=0;" vertex="1" parent="lxnCnVTD18VQQBiebtyx-109">
          <mxGeometry y="163" width="284" height="46" as="geometry" />
        </mxCell>
        <mxCell id="lxnCnVTD18VQQBiebtyx-123" value="string" style="shape=partialRectangle;connectable=0;fillColor=none;top=0;left=0;bottom=0;right=0;align=left;spacingLeft=2;overflow=hidden;fontSize=11;" vertex="1" parent="lxnCnVTD18VQQBiebtyx-122">
          <mxGeometry width="48" height="46" as="geometry">
            <mxRectangle width="48" height="46" as="alternateBounds" />
          </mxGeometry>
        </mxCell>
        <mxCell id="lxnCnVTD18VQQBiebtyx-124" value="event_type" style="shape=partialRectangle;connectable=0;fillColor=none;top=0;left=0;bottom=0;right=0;align=left;spacingLeft=2;overflow=hidden;fontSize=11;" vertex="1" parent="lxnCnVTD18VQQBiebtyx-122">
          <mxGeometry x="48" width="224" height="46" as="geometry">
            <mxRectangle width="224" height="46" as="alternateBounds" />
          </mxGeometry>
        </mxCell>
        <mxCell id="lxnCnVTD18VQQBiebtyx-125" value="" style="shape=partialRectangle;connectable=0;fillColor=none;top=0;left=0;bottom=0;right=0;align=left;spacingLeft=2;overflow=hidden;fontSize=11;" vertex="1" parent="lxnCnVTD18VQQBiebtyx-122">
          <mxGeometry x="272" width="12" height="46" as="geometry">
            <mxRectangle width="12" height="46" as="alternateBounds" />
          </mxGeometry>
        </mxCell>
        <mxCell id="lxnCnVTD18VQQBiebtyx-126" style="shape=tableRow;horizontal=0;startSize=0;swimlaneHead=0;swimlaneBody=0;fillColor=none;collapsible=0;dropTarget=0;points=[[0,0.5],[1,0.5]];portConstraint=eastwest;top=0;left=0;right=0;bottom=0;" vertex="1" parent="lxnCnVTD18VQQBiebtyx-109">
          <mxGeometry y="209" width="284" height="46" as="geometry" />
        </mxCell>
        <mxCell id="lxnCnVTD18VQQBiebtyx-127" value="json" style="shape=partialRectangle;connectable=0;fillColor=none;top=0;left=0;bottom=0;right=0;align=left;spacingLeft=2;overflow=hidden;fontSize=11;" vertex="1" parent="lxnCnVTD18VQQBiebtyx-126">
          <mxGeometry width="48" height="46" as="geometry">
            <mxRectangle width="48" height="46" as="alternateBounds" />
          </mxGeometry>
        </mxCell>
        <mxCell id="lxnCnVTD18VQQBiebtyx-128" value="metadata" style="shape=partialRectangle;connectable=0;fillColor=none;top=0;left=0;bottom=0;right=0;align=left;spacingLeft=2;overflow=hidden;fontSize=11;" vertex="1" parent="lxnCnVTD18VQQBiebtyx-126">
          <mxGeometry x="48" width="224" height="46" as="geometry">
            <mxRectangle width="224" height="46" as="alternateBounds" />
          </mxGeometry>
        </mxCell>
        <mxCell id="lxnCnVTD18VQQBiebtyx-129" value="" style="shape=partialRectangle;connectable=0;fillColor=none;top=0;left=0;bottom=0;right=0;align=left;spacingLeft=2;overflow=hidden;fontSize=11;" vertex="1" parent="lxnCnVTD18VQQBiebtyx-126">
          <mxGeometry x="272" width="12" height="46" as="geometry">
            <mxRectangle width="12" height="46" as="alternateBounds" />
          </mxGeometry>
        </mxCell>
        <mxCell id="lxnCnVTD18VQQBiebtyx-130" value="INVENTORY_SNAPSHOTS" style="shape=table;startSize=25;container=1;collapsible=0;childLayout=tableLayout;fixedRows=1;rowLines=1;fontStyle=1;align=center;resizeLast=1;" vertex="1" parent="1">
          <mxGeometry x="905" y="106" width="220" height="214" as="geometry" />
        </mxCell>
        <mxCell id="lxnCnVTD18VQQBiebtyx-131" style="shape=tableRow;horizontal=0;startSize=0;swimlaneHead=0;swimlaneBody=0;fillColor=none;collapsible=0;dropTarget=0;points=[[0,0.5],[1,0.5]];portConstraint=eastwest;top=0;left=0;right=0;bottom=0;" vertex="1" parent="lxnCnVTD18VQQBiebtyx-130">
          <mxGeometry y="25" width="220" height="47" as="geometry" />
        </mxCell>
        <mxCell id="lxnCnVTD18VQQBiebtyx-132" value="string" style="shape=partialRectangle;connectable=0;fillColor=none;top=0;left=0;bottom=0;right=0;align=left;spacingLeft=2;overflow=hidden;fontSize=11;" vertex="1" parent="lxnCnVTD18VQQBiebtyx-131">
          <mxGeometry width="48" height="47" as="geometry">
            <mxRectangle width="48" height="47" as="alternateBounds" />
          </mxGeometry>
        </mxCell>
        <mxCell id="lxnCnVTD18VQQBiebtyx-133" value="store_id" style="shape=partialRectangle;connectable=0;fillColor=none;top=0;left=0;bottom=0;right=0;align=left;spacingLeft=2;overflow=hidden;fontSize=11;" vertex="1" parent="lxnCnVTD18VQQBiebtyx-131">
          <mxGeometry x="48" width="172" height="47" as="geometry">
            <mxRectangle width="172" height="47" as="alternateBounds" />
          </mxGeometry>
        </mxCell>
        <mxCell id="lxnCnVTD18VQQBiebtyx-134" style="shape=tableRow;horizontal=0;startSize=0;swimlaneHead=0;swimlaneBody=0;fillColor=none;collapsible=0;dropTarget=0;points=[[0,0.5],[1,0.5]];portConstraint=eastwest;top=0;left=0;right=0;bottom=0;" vertex="1" parent="lxnCnVTD18VQQBiebtyx-130">
          <mxGeometry y="72" width="220" height="47" as="geometry" />
        </mxCell>
        <mxCell id="lxnCnVTD18VQQBiebtyx-135" value="string" style="shape=partialRectangle;connectable=0;fillColor=none;top=0;left=0;bottom=0;right=0;align=left;spacingLeft=2;overflow=hidden;fontSize=11;" vertex="1" parent="lxnCnVTD18VQQBiebtyx-134">
          <mxGeometry width="48" height="47" as="geometry">
            <mxRectangle width="48" height="47" as="alternateBounds" />
          </mxGeometry>
        </mxCell>
        <mxCell id="lxnCnVTD18VQQBiebtyx-136" value="product_id" style="shape=partialRectangle;connectable=0;fillColor=none;top=0;left=0;bottom=0;right=0;align=left;spacingLeft=2;overflow=hidden;fontSize=11;" vertex="1" parent="lxnCnVTD18VQQBiebtyx-134">
          <mxGeometry x="48" width="172" height="47" as="geometry">
            <mxRectangle width="172" height="47" as="alternateBounds" />
          </mxGeometry>
        </mxCell>
        <mxCell id="lxnCnVTD18VQQBiebtyx-137" style="shape=tableRow;horizontal=0;startSize=0;swimlaneHead=0;swimlaneBody=0;fillColor=none;collapsible=0;dropTarget=0;points=[[0,0.5],[1,0.5]];portConstraint=eastwest;top=0;left=0;right=0;bottom=0;" vertex="1" parent="lxnCnVTD18VQQBiebtyx-130">
          <mxGeometry y="119" width="220" height="47" as="geometry" />
        </mxCell>
        <mxCell id="lxnCnVTD18VQQBiebtyx-138" value="datetime" style="shape=partialRectangle;connectable=0;fillColor=none;top=0;left=0;bottom=0;right=0;align=left;spacingLeft=2;overflow=hidden;fontSize=11;" vertex="1" parent="lxnCnVTD18VQQBiebtyx-137">
          <mxGeometry width="48" height="47" as="geometry">
            <mxRectangle width="48" height="47" as="alternateBounds" />
          </mxGeometry>
        </mxCell>
        <mxCell id="lxnCnVTD18VQQBiebtyx-139" value="snapshot_time" style="shape=partialRectangle;connectable=0;fillColor=none;top=0;left=0;bottom=0;right=0;align=left;spacingLeft=2;overflow=hidden;fontSize=11;" vertex="1" parent="lxnCnVTD18VQQBiebtyx-137">
          <mxGeometry x="48" width="172" height="47" as="geometry">
            <mxRectangle width="172" height="47" as="alternateBounds" />
          </mxGeometry>
        </mxCell>
        <mxCell id="lxnCnVTD18VQQBiebtyx-140" style="shape=tableRow;horizontal=0;startSize=0;swimlaneHead=0;swimlaneBody=0;fillColor=none;collapsible=0;dropTarget=0;points=[[0,0.5],[1,0.5]];portConstraint=eastwest;top=0;left=0;right=0;bottom=0;" vertex="1" parent="lxnCnVTD18VQQBiebtyx-130">
          <mxGeometry y="166" width="220" height="47" as="geometry" />
        </mxCell>
        <mxCell id="lxnCnVTD18VQQBiebtyx-141" value="int" style="shape=partialRectangle;connectable=0;fillColor=none;top=0;left=0;bottom=0;right=0;align=left;spacingLeft=2;overflow=hidden;fontSize=11;" vertex="1" parent="lxnCnVTD18VQQBiebtyx-140">
          <mxGeometry width="48" height="47" as="geometry">
            <mxRectangle width="48" height="47" as="alternateBounds" />
          </mxGeometry>
        </mxCell>
        <mxCell id="lxnCnVTD18VQQBiebtyx-142" value="stock_qty" style="shape=partialRectangle;connectable=0;fillColor=none;top=0;left=0;bottom=0;right=0;align=left;spacingLeft=2;overflow=hidden;fontSize=11;" vertex="1" parent="lxnCnVTD18VQQBiebtyx-140">
          <mxGeometry x="48" width="172" height="47" as="geometry">
            <mxRectangle width="172" height="47" as="alternateBounds" />
          </mxGeometry>
        </mxCell>
        <mxCell id="lxnCnVTD18VQQBiebtyx-143" value="belongs to" style="curved=1;startArrow=ERmandOne;startSize=10;;endArrow=ERzeroToMany;endSize=10;;exitX=0;exitY=0.87;entryX=1;entryY=0.05;rounded=0;" edge="1" parent="1" source="lxnCnVTD18VQQBiebtyx-42" target="lxnCnVTD18VQQBiebtyx-1">
          <mxGeometry relative="1" as="geometry">
            <Array as="points">
              <mxPoint x="382" y="456" />
            </Array>
          </mxGeometry>
        </mxCell>
        <mxCell id="lxnCnVTD18VQQBiebtyx-144" value="contains" style="curved=1;startArrow=ERmandOne;startSize=10;;endArrow=ERzeroToMany;endSize=10;;exitX=0.5;exitY=1;entryX=0.5;entryY=0;rounded=0;" edge="1" parent="1" source="lxnCnVTD18VQQBiebtyx-42" target="lxnCnVTD18VQQBiebtyx-75">
          <mxGeometry relative="1" as="geometry">
            <Array as="points" />
          </mxGeometry>
        </mxCell>
        <mxCell id="lxnCnVTD18VQQBiebtyx-145" value="occurred at" style="curved=1;startArrow=ERmandOne;startSize=10;;endArrow=ERzeroToMany;endSize=10;;exitX=1;exitY=0.74;entryX=0.5;entryY=0;rounded=0;" edge="1" parent="1" source="lxnCnVTD18VQQBiebtyx-42" target="lxnCnVTD18VQQBiebtyx-92">
          <mxGeometry relative="1" as="geometry">
            <Array as="points">
              <mxPoint x="991" y="456" />
            </Array>
          </mxGeometry>
        </mxCell>
        <mxCell id="lxnCnVTD18VQQBiebtyx-146" value="performed by" style="curved=1;startArrow=ERmandOne;startSize=10;;endArrow=ERoneToMany;endSize=10;;exitX=0.5;exitY=1;entryX=0.38;entryY=0;rounded=0;" edge="1" parent="1" source="lxnCnVTD18VQQBiebtyx-109" target="lxnCnVTD18VQQBiebtyx-1">
          <mxGeometry relative="1" as="geometry">
            <Array as="points">
              <mxPoint x="162" y="456" />
            </Array>
          </mxGeometry>
        </mxCell>
      </root>
    </mxGraphModel>
  </diagram>
  <diagram id="WS8zAuzQH5XfqMlbBq1q" name="Page-2">
    <mxGraphModel dx="1017" dy="426" grid="1" gridSize="10" guides="1" tooltips="1" connect="1" arrows="1" fold="1" page="1" pageScale="1" pageWidth="850" pageHeight="1100" math="0" shadow="0">
      <root>
        <mxCell id="0" />
        <mxCell id="1" parent="0" />
      </root>
    </mxGraphModel>
  </diagram>
</mxfile>
